# xmcd
#
# Track frame offsets: 
#        150
#        16185
#        36282
#        56216
#        68944
#        84869
#        98215
#        118940
#
# Disc length: 1834 seconds
#
# Revision: 2
# Processed by: cddbd v1.5.2PL0 Copyright (c) Steve Scherf et al.
# Submitted via: ExactAudioCopy v1.0b1
#
DISCID=66072808
DTITLE=Brenda Russell - Love Life
DYEAR=1981
DGENRE=Soul
TTITLE0=Love Life
TTITLE1=Rainbow
TTITLE2=Something I Like To Do
TTITLE3=Lucky
TTITLE4=Sensitive Man
TTITLE5=Deep Dark And Mysterious
TTITLE6=If You Love
TTITLE7=Thank You
EXTD=\n\nYEAR: 1981  ID3G:  28
EXTT0=
EXTT1=
EXTT2=
EXTT3=
EXTT4=
EXTT5=
EXTT6=
EXTT7=
PLAYORDER=
